<?xml version="1.0" standalone="no"?>
<!DOCTYPE svg PUBLIC "-//W3C//DTD SVG 20010904//EN"
 "http://www.w3.org/TR/2001/REC-SVG-20010904/DTD/svg10.dtd">
<svg version="1.0" xmlns="http://www.w3.org/2000/svg"
 width="107.000000pt" height="107.000000pt" viewBox="0 0 107.000000 107.000000"
 preserveAspectRatio="xMidYMid meet">
<metadata>
Created by potrace 1.14, written by Peter Selinger 2001-2017
</metadata>
<g transform="translate(0.000000,107.000000) scale(0.100000,-0.100000)"
fill="#000000" stroke="none">
<path d="M339 809 c-336 -348 -338 -350 -339 -384 0 -27 15 -14 173 150 94 98
215 224 267 278 l95 99 102 -104 c56 -56 129 -132 163 -168 116 -123 262 -270
266 -270 2 0 4 12 4 26 0 19 -23 53 -80 116 l-80 91 0 128 0 129 -40 0 c-44 0
-42 5 -42 -103 l0 -49 -35 34 c-20 18 -71 67 -114 108 -42 41 -90 87 -106 103
l-29 27 -205 -211z"/>
<path d="M510 716 c0 -39 -28 -104 -55 -126 -50 -41 -60 -132 -20 -177 22 -26
24 -26 25 -7 0 11 11 35 25 54 14 19 25 41 25 49 0 26 50 -31 65 -75 9 -26 10
-45 3 -57 -9 -17 -8 -17 22 -2 104 54 86 182 -46 329 l-44 50 0 -38z"/>
<path d="M230 168 c0 -96 2 -108 18 -108 28 0 37 13 37 50 0 34 1 35 43 37
l42 1 0 -43 c0 -42 1 -44 28 -42 l27 2 1 100 c0 55 -3 103 -9 106 -5 4 -18 4
-28 2 -14 -4 -19 -14 -19 -43 0 -37 -1 -38 -37 -36 -45 1 -51 8 -48 47 1 16 0
29 -4 30 -55 7 -51 15 -51 -103z"/>
<path d="M507 260 c-23 -12 -36 -29 -46 -60 -13 -40 -12 -47 5 -79 25 -46 58
-63 112 -58 60 6 84 30 80 81 l-3 41 -43 0 c-30 0 -47 -5 -52 -16 -10 -18 -1
-34 19 -34 8 0 16 -6 19 -12 6 -19 -53 -16 -72 3 -25 25 -20 71 10 91 24 15
29 16 54 1 23 -13 29 -13 45 -1 19 13 19 14 -2 34 -27 27 -84 31 -126 9z"/>
<path d="M685 267 c-22 -12 -11 -41 16 -41 13 0 26 -3 29 -7 3 -4 5 -41 3 -82
l-2 -74 27 1 c27 1 27 2 30 83 3 81 3 82 29 80 20 -2 27 3 29 21 2 12 -1 22
-9 23 -59 4 -141 3 -152 -4z"/>
</g>
</svg>
